<svg xmlns="http://www.w3.org/2000/svg" viewBox="0 0 3152.9 989.5"><style>.st1{fill:#ed1c24}</style><path d="M1743 925c1 21 15 30 30 30 12 0 19-2 25-4l2 11c-5 3-15 6-29 6-27 0-43-18-43-44 0-27 16-48 41-48 29 0 36 25 36 42v7h-62zm47-11c0-11-4-26-22-26-16 0-23 15-24 26h46zm53-12l-1-24h15v15h1c4-9 14-17 29-17 12 0 31 8 31 38v52h-16v-51c0-14-6-25-21-25-10 0-18 7-21 16l-1 7v53h-16v-64zm137-49v25h23v12h-23v48c0 10 3 17 12 17l9-1 1 11c-3 2-8 3-14 3-8 0-14-3-17-7-5-5-7-13-7-23v-48h-13v-12h13v-21l16-4zm56 97c5 3 13 6 21 6 12 0 17-6 17-13 0-8-4-12-16-16-16-6-23-14-23-25 0-14 11-26 30-26 9 0 17 3 22 6l-4 11c-4-2-10-5-18-5-10 0-15 6-15 12 0 7 5 11 17 15 15 6 23 13 23 26 0 16-12 27-33 27-10 0-19-3-25-6l4-12zm162 16l-31-122h17l14 62 9 42h1l10-43 16-61h16l15 62 9 42 10-43 16-61h16l-34 122h-17l-15-64c-4-15-7-27-8-39h-1c-2 12-4 24-9 39l-17 64h-17zm224-45c0 33-23 47-44 47-23 0-42-18-42-45 0-29 20-47 44-47 25 0 42 19 42 45m-70 1c0 19 11 34 27 34 15 0 27-14 27-34 0-15-8-34-27-34-18 0-27 18-27 34m108-16l-1-28h14l1 18c4-12 14-20 24-20l5 1v15l-5-1c-12 0-20 9-22 21v54h-16v-60zm78-68h16v128h-16zm136-1v129h-14l-1-15c-5 9-15 17-30 17-21 0-37-18-37-45 0-29 18-47 39-47 13 0 22 7 26 14h1v-53h16zm-16 77l-1-7c-2-10-11-18-23-18-16 0-26 14-26 34 0 17 9 32 26 32 10 0 20-7 23-19l1-7v-15zm66-36l12 45 7 28 8-28 14-45h14l13 44 8 29 7-29 13-44h15l-28 88h-14l-14-42-8-29-8 29-14 42h-14l-27-88h16zm163-24c0 5-4 10-10 10s-10-5-10-10c0-6 4-10 10-10s10 4 10 10m-18 24h16v88h-16v-88zm136-41v106l1 23h-15v-15h-1c-5 9-15 17-30 17-21 0-37-18-37-45 0-29 18-47 39-47 14 0 23 7 27 14v-53h16zm-16 77l-1-7c-2-10-11-18-23-18-16 0-26 14-26 34 0 17 9 32 26 32 11 0 20-7 23-19l1-7v-15zm69 11c1 21 14 30 30 30 12 0 18-2 24-4l3 11c-6 3-15 6-29 6-27 0-43-18-43-44 0-27 15-48 41-48 29 0 36 25 36 42v7h-62zm47-11c0-11-4-26-22-26-16 0-23 15-25 26h47zm-1467-36l17 50 7 22 8-23 17-49h16l-34 88h-15l-33-88h17zm-49 31h-47v44h53v13h-69V844h66v13h-50v39h47zm1564-156H1287c37-28 78-68 125-119l14-16V440l-92 76c-27 23-50 41-68 54a1176 1176 0 0154-107h10l25 2 31 2 18-24c32-42 59-84 81-124l16-31h1652v465zm-975-57h77l-19-351h-103l-38 117-33 126h-2c-7-41-18-85-29-126l-35-117h-105l-22 351h73l6-133c3-44 4-98 6-145h1c9 45 21 95 32 136l38 136h61l43-137c14-41 28-91 39-135h2c0 51 1 102 3 144l5 134zm231-351h-80v351h80V345zm327 279c-15 6-42 11-66 11-71 0-112-44-112-114 0-78 49-116 112-116 28 0 50 6 66 13l16-63c-14-7-45-15-86-15-106 0-192 66-192 186 1 100 63 175 184 175 43 0 76-8 90-15l-12-62zm286-141h-129v-73h136v-65h-216v351h224v-65h-144v-83h129v-65zm-1358 51c0-28-19-51-53-51-44 0-74 36-74 79 0 31 21 51 53 51 43 0 74-33 74-79m-89 27c0-19 11-50 32-50 14 0 19 12 19 24 0 21-11 50-31 50-13 0-20-9-20-24m147 49l18-96h24l6-28h-25l1-6c3-12 10-23 22-23l12 3 6-30c-4-1-11-3-20-3-12 0-25 4-35 12a66 66 0 00-21 41l-1 6h-16l-5 28h16l-18 96h36z" fill="#6d6e71"/><path class="st1" d="M560 509a2963 2963 0 01-218 0 2016 2016 0 01-124 128l-26 26-76 75c-12 12-24 22-37 32-13 9-25 14-36 14-12 0-18-6-18-17 0-13 8-32 26-58 17-26 37-49 60-69 22-20 40-30 54-30 4 0 9 2 16 5l100-108c-12-2-29-3-49-3-21-1-34-3-41-5-7-3-11-9-11-18 0-15 16-40 48-72 18-19 35-30 50-35s45-8 89-8c-26 3-44 8-55 12-11 5-17 12-18 22h29a2008 2008 0 0064-1c58-57 110-107 157-149s97-82 149-120S801 57 860 25c11 16 17 32 17 48 0 14-4 30-13 49l-57 102c-29 50-58 103-88 160a967 967 0 0182 2c4 0 6 4 6 10 0 3-3 8-8 16l-29 36-40 52-77 6c-41 78-62 123-62 132 0 15 8 22 23 22 7 0 38-15 91-47l-4 29a6219 6219 0 00-109 83c-11 9-22 15-32 19-9 4-19 6-29 6-12 0-23-5-34-16s-17-26-17-46c0-9 3-20 9-35l19-44 52-100M460 388l171-3a64541 64541 0 01164-277 1226 1226 0 00-166 124 2443 2443 0 00-169 156m319 214v-35c19-22 33-42 43-58-11-4-20-9-25-14-5-6-7-15-7-26 0-13 5-29 16-49 10-19 23-38 39-55 15-17 29-28 42-33 5-2 9-4 14-4 7 0 11 4 11 11 0 6-6 18-17 36 73-11 118-17 137-17 8 0 13 1 15 3 6 3 11 10 15 22s6 23 6 35c0 8-3 16-10 25l-33 38c-19 20-34 42-47 66s-19 42-19 54c0 17 10 25 31 25s58-22 111-66v36c-29 31-53 55-72 73s-36 32-53 42a82 82 0 01-43 16c-15 0-27-7-37-20-10-14-14-34-14-60 0-15 3-33 11-52 8-20 19-41 34-64s32-46 50-69l-33 7-39 7-31 6c-22 44-54 84-95 120"/><path class="st1" d="M1284 284h23c18-34 35-58 50-72s33-21 52-21 29 4 29 13c0 4-8 16-23 35s-26 34-34 47l32 4 22 3c-20 37-45 76-75 116l-25-2-21-2-25-2c-19 31-34 59-47 83-13 25-23 47-30 67-7 21-10 40-10 58 0 25 10 37 29 37 13 0 31-7 52-22 22-14 51-36 87-66v36c-95 104-165 156-210 156-16 0-29-6-38-18a76 76 0 01-15-48c0-14 3-29 8-48l29-82-14 13-12 11-11 11-13 11v-37c37-31 81-86 134-165a538 538 0 00-31-1 187 187 0 00-66 10c-2 0-2-1-2-4 0-11 7-29 21-52 12-20 23-35 33-45 11-10 23-16 38-19 15-4 36-5 63-5"/></svg>