<svg width="150" height="45" viewBox="0 0 150 45" fill="none" xmlns="http://www.w3.org/2000/svg">
<g clip-path="url(#clip0_0_724)">
<path d="M60.4225 2.77466C64.592 2.77466 67.6577 5.25975 67.6577 8.63617C67.6577 11.3185 65.7187 13.4329 63.0942 13.7723C66.357 14.0644 68.6112 16.2574 68.6112 19.2711C68.6112 22.8293 65.4586 25.3382 60.9819 25.3382H49.877V2.77466H60.4221H60.4225ZM65.2461 8.93621C65.2461 6.58525 63.2837 5.0387 60.2965 5.0387H52.3048V12.8968H60.5803C63.3467 12.8968 65.2461 11.2638 65.2461 8.93621ZM60.6672 23.0741C64.19 23.0741 66.2 21.5748 66.2 18.9714C66.2 16.3681 64.3086 15.0505 60.754 15.0505H52.3048V23.0741H60.6672Z" fill="#006CAF"/>
<path d="M73.8525 25.3386H71.5039V7.94214H73.8525V13.6148C74.6485 10.0014 76.942 7.94214 80.6936 7.94214H81.4897V10.2066H80.7015C75.7443 10.2066 73.8525 12.3841 73.8525 16.7944V25.3386Z" fill="#006CAF"/>
<path d="M98.2853 19.7529C97.3081 23.5794 94.4469 25.8121 90.5613 25.8121C85.5644 25.8121 82.2148 22.1198 82.2148 16.613C82.2148 11.1063 85.5248 7.46912 90.4665 7.46912C95.1482 7.46912 98.3638 10.8773 98.3638 16.3134C98.3638 16.6682 98.348 17.0313 98.3087 17.4496H84.5951C84.8552 21.2681 87.1487 23.6743 90.6085 23.6743C93.1937 23.6743 94.9984 22.3254 95.9364 19.7534H98.2849L98.2853 19.7529ZM95.9681 15.3979C95.6688 11.7293 93.5803 9.60696 90.4749 9.60696C87.3695 9.60696 85.0289 11.8238 84.6269 15.3979H95.9681Z" fill="#006CAF"/>
<path d="M116.475 19.7529C115.498 23.5794 112.636 25.8121 108.751 25.8121C103.754 25.8121 100.404 22.1198 100.404 16.613C100.404 11.1063 103.714 7.46912 108.656 7.46912C113.338 7.46912 116.553 10.8773 116.553 16.3134C116.553 16.6682 116.537 17.0313 116.498 17.4496H102.785C103.045 21.2681 105.338 23.6743 108.798 23.6743C111.383 23.6743 113.188 22.3254 114.126 19.7534H116.474L116.475 19.7529ZM114.158 15.3979C113.858 11.7293 111.77 9.60696 108.664 9.60696C105.559 9.60696 103.218 11.8238 102.816 15.3979H114.158Z" fill="#006CAF"/>
<path d="M120.787 23.3266H132.538V25.3386H118.107V23.2163L129.267 9.93832H118.415V7.94214H131.931V10.0645L120.787 23.3266Z" fill="#006CAF"/>
<path d="M149.656 19.7529C148.679 23.5794 145.818 25.8121 141.932 25.8121C136.936 25.8121 133.586 22.1198 133.586 16.613C133.586 11.1063 136.896 7.46912 141.838 7.46912C146.519 7.46912 149.735 10.8773 149.735 16.3134C149.735 16.6682 149.719 17.0313 149.68 17.4496H135.966C136.226 21.2681 138.52 23.6743 141.98 23.6743C144.565 23.6743 146.369 22.3254 147.307 19.7534H149.656L149.656 19.7529ZM147.339 15.3979C147.04 11.7293 144.951 9.60696 141.846 9.60696C138.741 9.60696 136.4 11.8238 135.998 15.3979H147.339Z" fill="#006CAF"/>
<path d="M58.7031 35.4929H57.8999C57.8999 33.7646 56.423 32.6815 54.3921 32.6815C52.5069 32.6815 50.8884 33.6313 50.8884 35.2681C50.8884 36.9049 52.5152 37.2008 54.2506 37.5008L55.0454 37.6383C56.8513 37.9467 59.1355 38.3508 59.1355 40.8497C59.1355 43.1112 57.2545 44.3443 54.5666 44.3443C51.7371 44.3443 49.877 42.9908 49.877 40.6746H50.6801C50.6801 42.5115 52.2531 43.5943 54.5707 43.5943C56.7344 43.5943 58.3324 42.6402 58.3324 40.8492C58.3324 39.0582 56.6221 38.675 54.9243 38.3834L54.0715 38.2334C52.3073 37.9333 50.0853 37.5627 50.0853 35.2886C50.0853 33.1771 52.0034 31.9314 54.4004 31.9314C56.9181 31.9314 58.7031 33.3016 58.7031 35.4929Z" fill="#006CAF"/>
<path d="M67.5984 31.9319C70.8106 31.9319 72.9993 34.4437 72.9993 38.1381C72.9993 41.8326 70.8106 44.3444 67.5984 44.3444C64.3861 44.3444 62.2012 41.8326 62.2012 38.1381C62.2012 34.4437 64.3898 31.9319 67.5984 31.9319ZM67.5984 43.5826C70.3656 43.5826 72.184 41.4205 72.184 38.1386C72.184 34.8566 70.3656 32.6945 67.5984 32.6945C64.8311 32.6945 63.0169 34.852 63.0169 38.1386C63.0169 41.4251 64.8348 43.5826 67.5984 43.5826Z" fill="#006CAF"/>
<path d="M84.1036 32.944H77.3255V37.9342H83.6043V38.7006H77.3255V44.0945H76.5098V32.1818H84.1036V32.944Z" fill="#006CAF"/>
<path d="M95.0304 32.944H90.7403V44.0945H89.9246V32.944H85.6387V32.1818H95.03V32.944H95.0304Z" fill="#006CAF"/>
<path d="M106.11 32.1818L109.659 43.3908L113.267 32.1818H114.12L110.271 44.0945H109.123L105.594 33.0898L102.023 44.0945H100.875L97.0801 32.1818H97.9454L101.495 43.3908L105.102 32.1818H106.109H106.11Z" fill="#006CAF"/>
<path d="M115.312 44.0945L120.26 32.1818H121.404L126.306 44.0945H125.432L123.992 40.5789H117.63L116.17 44.0945H115.312ZM123.685 39.8293L120.826 32.8692L117.938 39.8293H123.685Z" fill="#006CAF"/>
<path d="M129.242 44.0945V32.1818H134.556C136.94 32.1818 138.584 33.5607 138.584 35.5724C138.584 37.4135 137.207 38.6713 135.172 38.7298C136.054 38.8046 136.849 39.5088 137.369 40.6667L138.904 44.0949H138.006L136.474 40.6709C136 39.6086 135.138 39.0341 134.069 39.0341H130.058V44.0949H129.242V44.0945ZM134.481 38.2673C136.478 38.2673 137.768 37.2343 137.768 35.61C137.768 33.9857 136.491 32.9444 134.481 32.9444H130.058V38.2677H134.481V38.2673Z" fill="#006CAF"/>
<path d="M149.834 32.1818V32.944H143.056V37.7675H149.335V38.5339H143.056V43.3323H150.001V44.0945H142.24V32.1818H149.834Z" fill="#006CAF"/>
<path d="M33.6291 5.22345C33.2012 4.75877 32.6915 4.28616 32.1188 3.82524C29.4312 1.66274 26.1309 0.447148 22.6999 0.105327C3.70099 -1.78681 -8.18001 22.2572 7.12156 36.5782L6.85314 35.8912C6.26704 34.4796 5.94394 32.9314 5.94394 31.308C4.30712 14.2746 13.3319 13.1325 25.7155 14.2357C38.0991 15.3389 36.1104 8.15149 33.6295 5.22345H33.6291Z" fill="url(#paint0_linear_0_724)"/>
<path d="M8.35516 39.7766C8.78304 40.2413 9.29274 40.7139 9.86548 41.1748C12.553 43.3373 15.8534 44.5529 19.2844 44.8947C38.2829 46.7869 50.1638 22.7428 34.8627 8.42188L35.1311 9.10886C35.7172 10.5204 36.0403 12.0687 36.0403 13.6921C37.6771 30.7255 28.6523 31.8675 16.2687 30.7643C3.88512 29.6612 5.87384 36.8486 8.35474 39.7766H8.35516Z" fill="url(#paint1_linear_0_724)"/>
<path d="M14.8506 4.12151C36.4364 -2.32085 51.5631 24.238 34.8593 39.7478L35.119 39.0604C35.7051 37.6488 36.0282 36.1006 36.0282 34.4771C36.0282 31.0188 35.7067 25.6926 22.0512 19.1633C20.4461 18.3957 18.9165 17.4843 17.3649 16.6134C10.9905 13.0348 9.96395 9.04407 11.5064 6.36341C11.9865 5.52933 13.3653 4.56446 14.8502 4.1211L14.8506 4.12151Z" fill="url(#paint2_linear_0_724)"/>
<path d="M27.1333 40.8785C5.54746 47.3204 -9.57919 20.7621 7.12459 5.25183L6.86493 5.93923C6.27884 7.35081 5.95573 8.89903 5.95573 10.5225C5.95573 13.9808 6.27717 19.307 19.9327 25.8363C21.5378 26.6039 23.0674 27.5153 24.619 28.3862C30.9934 31.9648 32.0199 35.9555 30.4775 38.6362C29.9974 39.4703 28.6186 40.4351 27.1337 40.8785H27.1333Z" fill="url(#paint3_linear_0_724)"/>
</g>
<defs>
<linearGradient id="paint0_linear_0_724" x1="1.49185" y1="21.0249" x2="35.8376" y2="12.6126" gradientUnits="userSpaceOnUse">
<stop offset="0.3" stop-color="#046EB1"/>
<stop offset="1" stop-color="#C4EDF9"/>
</linearGradient>
<linearGradient id="paint1_linear_0_724" x1="40.4928" y1="23.9756" x2="6.14706" y2="32.3875" gradientUnits="userSpaceOnUse">
<stop offset="0.3" stop-color="#046EB1"/>
<stop offset="1" stop-color="#C4EDF9"/>
</linearGradient>
<linearGradient id="paint2_linear_0_724" x1="17.63" y1="25.0181" x2="46.2196" y2="12.7392" gradientUnits="userSpaceOnUse">
<stop offset="0.11" stop-color="#C4EDF9"/>
<stop offset="0.8" stop-color="#009DDF"/>
</linearGradient>
<linearGradient id="paint3_linear_0_724" x1="24.3543" y1="19.9819" x2="-4.23533" y2="32.2613" gradientUnits="userSpaceOnUse">
<stop offset="0.11" stop-color="#C4EDF9"/>
<stop offset="0.8" stop-color="#009DDF"/>
</linearGradient>
<clipPath id="clip0_0_724">
<rect width="150" height="45" fill="white"/>
</clipPath>
</defs>
</svg>
