<?xml version="1.0" encoding="utf-8"?>
<!-- Generator: Adobe Illustrator 16.0.2, SVG Export Plug-In . SVG Version: 6.00 Build 0)  -->
<!DOCTYPE svg PUBLIC "-//W3C//DTD SVG 1.1//EN" "http://www.w3.org/Graphics/SVG/1.1/DTD/svg11.dtd">
<svg version="1.1" id="Layer_1" xmlns="http://www.w3.org/2000/svg" xmlns:xlink="http://www.w3.org/1999/xlink" x="0px" y="0px"
	 width="396px" height="166px" viewBox="0 0 396 166" enable-background="new 0 0 396 166" xml:space="preserve">
<g>
	<g>
		<linearGradient id="SVGID_1_" gradientUnits="userSpaceOnUse" x1="39.9756" y1="129.2227" x2="116.2402" y2="83.8649">
			<stop  offset="0" style="stop-color:#F59D08"/>
			<stop  offset="0.0698" style="stop-color:#F39309"/>
			<stop  offset="0.1941" style="stop-color:#EE7A0B"/>
			<stop  offset="0.2683" style="stop-color:#EB660C"/>
			<stop  offset="1" style="stop-color:#9F1A16"/>
		</linearGradient>
		<path fill="url(#SVGID_1_)" d="M21.62,102.796l28.404,40.153c9.008,12.499,17.352,10.256,25.457,0l33.996-53.063
			c10.327-17.121-0.395-22.432-16.991-13.075l-29.41,18.174C31.355,113.817,21.62,102.796,21.62,102.796z"/>
		<linearGradient id="SVGID_2_" gradientUnits="userSpaceOnUse" x1="94.5127" y1="48.0522" x2="17.0308" y2="91.0562">
			<stop  offset="0" style="stop-color:#83D0F5"/>
			<stop  offset="1" style="stop-color:#2E276A"/>
		</linearGradient>
		<path fill="url(#SVGID_2_)" d="M112.54,74.461L84.133,34.329c-9.014-12.496-17.365-10.252-25.468,0L24.684,87.375
			c-10.347,17.125,0.373,22.44,16.979,13.071l29.406-18.162C102.78,63.46,112.54,74.461,112.54,74.461z"/>
	</g>
	<path fill="#FFFFFF" d="M160.675,50.444c5.189,0,9.713,0.548,13.846,3.62c4.51,3.403,7.145,8.821,7.145,15
		c0,6.198-2.577,11.557-7.48,15.035c-4.357,3.052-8.442,3.573-13.629,3.573h-9.595V50.444H160.675z M158.218,81.409h2.253
		c1.822,0,5.839-0.103,9.071-2.457c2.959-2.114,4.643-5.907,4.643-9.889c0-3.9-1.613-7.677-4.572-9.925
		c-3.039-2.22-6.702-2.453-9.142-2.453h-2.253V81.409z"/>
	<path fill="#FFFFFF" d="M212.56,56.686h-13.426v8.84h9.902l-2.497,6.258h-7.405v9.625h13.426v6.262h-20.647V50.444h20.647V56.686z"
		/>
	<path fill="#FFFFFF" d="M232.603,50.444v30.965h12.762l-2.802,6.262h-17.215V50.444H232.603z"/>
	<path fill="#FFFFFF" d="M265.486,56.686v30.985h-7.246V56.686h-8.217v-6.242h25.208l-2.654,6.242H265.486z"/>
	<path fill="#FFFFFF" d="M300.515,73.929l-2.61,5.915h-10.278l-3.284,7.827h-7.893l16.128-38.023h5.484l15.676,38.023h-7.823
		L300.515,73.929z M300.515,73.929l-5.259-13.387l-5.349,13.387H300.515z"/>
	<path fill="#FFFFFF" d="M340.328,49.782h5.02l10.102,24.313l10.552-24.313h5.012l6.266,37.889h-7.354l-3.355-22.945L356.345,88.16
		h-2.007l-9.764-23.434l-3.809,22.945h-7.362L340.328,49.782z"/>
	<g>
		<path fill="#FFFFFF" d="M159.474,108.703h5.438v0.339c0,1.585-0.245,3.194-1.262,4.646c-1.629,2.361-3.997,2.688-5.469,2.688
			c-4.253,0-7.22-2.882-7.22-7.185c0-4.27,3.056-7.199,7.3-7.199c3.923,0,5.475,2.468,5.903,3.241l-2.326,1.262
			c-0.278-0.517-1.317-2.063-3.592-2.063c-2.727,0-4.527,2.165-4.527,4.803c0,2.138,1.268,4.712,4.505,4.712
			c1.908,0,3.633-0.824,3.927-2.93h-3.549L159.474,108.703z"/>
		<path fill="#FFFFFF" d="M177.781,102.304c1.901,0,2.875,0.496,3.514,1.028c1.049,0.896,1.358,2.063,1.358,3.1
			c0,1.345-0.534,2.508-1.603,3.245c-0.361,0.245-0.852,0.478-1.511,0.592l4.282,5.805h-3.344l-3.663-5.532h-0.331v5.532h-2.677
			v-13.77H177.781z M176.484,108.647h0.759c0.514,0,2.634-0.063,2.634-2.09c0-2.042-2.097-2.07-2.593-2.07h-0.8V108.647z"/>
		<path fill="#FFFFFF" d="M206.087,109.191c0,4.196-3.007,7.185-7.352,7.185c-4.325,0-7.334-2.988-7.334-7.185
			c0-4.184,3.009-7.199,7.334-7.199C203.08,101.992,206.087,105.008,206.087,109.191z M203.321,109.191
			c0-2.771-1.893-4.759-4.586-4.759c-2.678,0-4.582,1.987-4.582,4.759c0,2.784,1.904,4.756,4.582,4.756
			C201.429,113.947,203.321,111.976,203.321,109.191z"/>
		<path fill="#FFFFFF" d="M217.658,102.304v8.651c0,1.053,0.341,1.688,0.666,2.046c0.387,0.457,1.104,0.946,2.181,0.946
			c1.074,0,1.796-0.489,2.194-0.946c0.306-0.358,0.66-0.993,0.66-2.046v-8.651h2.678v8.422c0,1.31-0.209,2.627-1.033,3.676
			c-0.997,1.297-2.717,1.975-4.499,1.975c-1.771,0-3.513-0.678-4.501-1.975c-0.826-1.049-1.027-2.366-1.027-3.676v-8.422H217.658z"
			/>
		<path fill="#FFFFFF" d="M239.592,102.304c1.542,0,2.618,0.165,3.63,1.053c1.107,1.005,1.399,2.326,1.399,3.315
			c0,0.545-0.083,2.031-1.132,3.08c-0.761,0.765-1.9,1.219-3.493,1.219h-1.741v5.103h-2.668v-13.77H239.592z M238.255,108.659h1.108
			c0.519,0,1.177,0,1.748-0.434c0.493-0.391,0.743-1.009,0.743-1.612c0-0.766-0.374-1.27-0.769-1.562
			c-0.546-0.398-1.258-0.43-1.891-0.43h-0.94V108.659z"/>
	</g>
</g>
</svg>
