<svg width="0" height="0" class="hidden">
  <symbol xmlns="http://www.w3.org/2000/svg" id="discussion-idea_17699750" viewBox="0 0 24 24">
    <path d="M0,7.5c0-1.381,1.119-2.5,2.5-2.5s2.5,1.119,2.5,2.5-1.119,2.5-2.5,2.5S0,8.881,0,7.5Zm21.5,2.5c1.381,0,2.5-1.119,2.5-2.5s-1.119-2.5-2.5-2.5-2.5,1.119-2.5,2.5,1.119,2.5,2.5,2.5ZM7,24h3v-2h4v2h3v-5H7v5Zm.094-19.975c.363-1.895,1.864-3.458,3.733-3.89,1.521-.35,3.082-.006,4.283,.95,1.201,.955,1.89,2.382,1.89,3.915,0,1.722-.875,3.298-2.341,4.217-.094,.059-.159,.211-.159,.37v2.413h-5v-2.414c0-.165-.077-.316-.201-.395-1.729-1.108-2.595-3.136-2.205-5.166Zm3.823,2.64c.446,.286,.812,.665,1.078,1.103,.265-.439,.627-.814,1.07-1.092,.585-.367,.935-.993,.935-1.676,.024-1.073-.927-2.024-1.998-2-.921-.026-1.792,.675-1.963,1.59-.19,.993,.329,1.723,.878,2.074Zm-3.865,10.335h3.948v-3h-3.052l-4.373-2.748c-.327-.157-.689-.252-1.075-.252-1.381,0-2.5,1.119-2.5,2.5v10.5H5V15.654l2.052,1.346Zm14.448-6c-.441,0-.849,.124-1.208,.324l-4.235,2.676h-3.057v3h3.943l2.057-1.331v8.331h5V13.5c0-1.381-1.119-2.5-2.5-2.5Z"></path>
  </symbol>
  <symbol xmlns="http://www.w3.org/2000/svg" id="features_13794347" viewBox="0 0 24 24">
    <path d="m7,19h14v1.5c0,1.93-1.57,3.5-3.5,3.5H6.24c.48-.716.76-1.576.76-2.5v-2.5Zm11.015-9.143l3.261,2.521.75-.523-1.326-4.029,3.3-1.909v-.917h-4.326l-1.176-4.5h-.97l-1.177,4.5h-4.35v.923l3.322,1.848-1.303,4.076.722.543,3.275-2.532Zm-7.433.143h-6.582v-2h6.062c-.041-.328-.062-.661-.062-1s.021-.672.062-1h-6.062v-2h6.582C11.271,2.298,12.529.887,14.12.003c-.04-.002-.08-.003-.12-.003H3C1.343,0,0,1.343,0,3v18.357c0,1.308.941,2.5,2.242,2.63,1.496.15,2.758-1.021,2.758-2.487v-4.5h12v-2.062c-2.92-.364-5.351-2.302-6.418-4.938Zm-1.582,4h-5v-2h5v2Z"></path>
  </symbol>
  <symbol xmlns="http://www.w3.org/2000/svg" id="freemium_17698315" viewBox="0 0 24 24">
    <path d="M17.792,13.137L12.994,3.14c-.475-.985-.082-2.148,.893-2.646l.312-.168c.787-.38,1.651-.427,2.454-.145,.802,.282,1.446,.859,1.813,1.625l.694,1.446c-.003-.061-.005-.117-.005-.166,0-.833,.675-1.508,1.508-1.508s1.508,.675,1.508,1.508c0,.729-.331,1.39-.752,1.938,.631-.043,1.29,.037,1.855,.38,.712,.432,.939,1.36,.506,2.072-.432,.712-1.36,.939-2.072,.506-.11-.067-.259-.174-.42-.296l.954,1.987c.757,1.577,.094,3.476-1.479,4.239l-.258,.141c-.966,.519-2.262,.081-2.714-.915Zm-5.792-.137c0-1.522,0-4.25,0-4.25,0-.32-.195-.597-.498-.706-.301-.107-.63-.015-.848,.252l-1.154,1.704-1.231-1.675c-.425-.421-1.124-.411-1.579,.045l-1.19,1.63s-1.305-1.85-1.337-1.873c-.191-.136-.482-.152-.729-.04-.268,.124-.434,.385-.434,.681v4.232c-1.654,0-3,1.346-3,3v5c0,1.654,1.346,3,3,3h3.5v-8c0-.552,.447-1,1-1s1,.448,1,1v8h3.5c1.654,0,3-1.346,3-3v-5c0-1.654-1.346-3-3-3ZM.382,3.047l1.099,.463,.438,1.097c.186,.515,.975,.515,1.161,0l.436-1.09,1.09-.436c.515-.186,.515-.975,0-1.161l-1.09-.436-.436-1.09C2.894-.122,2.106-.122,1.92,.393l-.433,1.084L.404,1.887c-.518,.177-.533,.965-.021,1.16Zm7,2l1.099,.463,.438,1.097c.186,.515,.975,.515,1.161,0l.436-1.09,1.09-.436c.515-.186,.515-.975,0-1.161l-1.09-.436-.436-1.09c-.186-.515-.975-.515-1.161,0l-.433,1.084-1.082,.41c-.518,.177-.533,.965-.021,1.16Zm16.146,14.256l-1.308-.523-.523-1.308c-.223-.618-1.17-.618-1.393,0l-.52,1.301-1.299,.492c-.622,.212-.64,1.158-.026,1.392l1.318,.556,.526,1.316c.223,.618,1.17,.618,1.393,0l.523-1.308,1.308-.523c.618-.223,.618-1.17,0-1.393Z"></path>
  </symbol>
  <symbol xmlns="http://www.w3.org/2000/svg" id="land-location_13727473" viewBox="0 0 24 24">
    <path d="m21.768,9h-2.35c-.397.983-.989,1.886-1.762,2.658l-.35.342h1.926l.507,3h-2.858l-.199-2.389-4.681,4.578-4.681-4.578-.199,2.389h-2.859l.507-3h1.926l-.323-.316c-.785-.784-1.384-1.696-1.786-2.684h-2.354L.021,22.092l-.021,1.908h24v-1.5l-2.232-13.5Zm-15.148,12h-3.372l.507-3h3.115l-.25,3Zm3.01,0l.25-3h4.24l.25,3h-4.74Zm7.75,0l-.25-3h3.115l.507,3h-3.371Zm-5.38-6.608l4.242-4.149c1.134-1.133,1.758-2.64,1.758-4.243s-.624-3.11-1.758-4.243c-1.134-1.133-2.641-1.757-4.242-1.757s-3.11.624-4.242,1.757c-1.134,1.133-1.758,2.64-1.758,4.243s.624,3.11,1.77,4.254l4.23,4.138Zm0-10.392c1.105,0,2,.895,2,2s-.895,2-2,2-2-.895-2-2,.895-2,2-2Z"></path>
  </symbol>
  <symbol xmlns="http://www.w3.org/2000/svg" id="message-heart_16769101" viewBox="0 0 24 24">
    <path d="m16,8.7c0,1.502-2.26,3.731-4,5.062-1.74-1.33-4-3.56-4-5.062,0-.938.673-1.7,1.5-1.7.747,0,1.5.449,1.5,1.454v.546h2v-.546c0-1.005.753-1.454,1.5-1.454.827,0,1.5.763,1.5,1.7Zm8-5.7v17h-6.853l-3.847,3.18c-.361.322-.824.484-1.292.484-.476,0-.955-.168-1.337-.508l-3.749-3.156H0V3C0,1.346,1.346,0,3,0h18c1.654,0,3,1.346,3,3Zm-6,5.7c0-2.04-1.57-3.7-3.5-3.7-.999,0-1.874.372-2.5.99-.626-.618-1.501-.99-2.5-.99-1.93,0-3.5,1.66-3.5,3.7,0,3.256,4.874,6.735,5.43,7.121l.57.396.57-.396c.556-.386,5.43-3.865,5.43-7.121Z"></path>
  </symbol>
  <symbol xmlns="http://www.w3.org/2000/svg" id="nfc-magnifying-glass_9768588" viewBox="0 0 24 24">
    <path d="M23.71,22.29l-2.54-2.54c.52-.79,.83-1.74,.83-2.75,0-2.76-2.24-5-5-5s-5,2.24-5,5,2.24,5,5,5c1.02,0,1.96-.31,2.75-.83l2.54,2.54c.2,.2,.45,.29,.71,.29s.51-.1,.71-.29c.39-.39,.39-1.02,0-1.41ZM15,10.29v-.29c0-.55-.45-1-1-1s-1,.45-1,1v1.26c-.68,.47-1.27,1.06-1.74,1.74h-2.26v-3.67c0-.27,.1-.52,.29-.71l3.33-3.33c.19-.19,.44-.29,.71-.29h3.67v5c-.7,0-1.37,.1-2,.29Zm-4.71,8.71c.34,1.15,.97,2.18,1.81,3H5c-2.76,0-5-2.24-5-5V5C0,2.24,2.24,0,5,0h12c2.76,0,5,2.24,5,5v7.11c-.82-.84-1.85-1.47-3-1.81V5c0-1.1-.9-2-2-2h-3.67c-.8,0-1.55,.31-2.12,.88l-3.33,3.33c-.57,.57-.88,1.32-.88,2.12v3.67c0,1.1,.9,2,2,2h1.29c-.19,.63-.29,1.3-.29,2H5V7.81l2.71-3.1c.29-.29,.37-.72,.22-1.09-.15-.37-.52-.62-.92-.62h-2c-1.1,0-2,.9-2,2v12c0,1.1,.9,2,2,2h5.29Z"></path>
  </symbol>
  <svg width="0" height="0" class="hidden">
  <symbol xmlns="http://www.w3.org/2000/svg" viewBox="0 0 24 24" id="angle-double-right_3916752">
    <path d="M22.121 9.879 12.246 0l-1.414 1.418 9.875 9.875a1 1 0 0 1 0 1.414L10.819 22.6l1.414 1.414 9.888-9.888a3 3 0 0 0 0-4.242Z"></path>
    <path d="M13.535 11.293 2.262.019.847 1.433 11.414 12 .836 22.578l1.414 1.415 11.285-11.286a1 1 0 0 0 0-1.414Z"></path>
  </symbol>
</svg>
</svg>
